<svg xmlns="http://www.w3.org/2000/svg" viewBox="0 0 107.76 34.65"><g id="Layer_2" data-name="Layer 2"><g id="Layer_1-2" data-name="Layer 1"><path d="M0,23.42l7.57-12.5,3.88,2.6L6.59,21.73a3.27,3.27,0,0,1-2.78,1.69Zm16,0a3.32,3.32,0,0,1-2.82-1.71L8,13.12.14.46H4.06A3.59,3.59,0,0,1,7.11,2.32L12,10.63l8,12.79Zm-3.5-10.66L8.62,10.27,13,2.57A3.91,3.91,0,0,1,16.35.46h3.4Z" fill="#333"/><path d="M29,23.75a9.58,9.58,0,0,1-7.4-3.33,11.16,11.16,0,0,1-2.14-3.77,14.71,14.71,0,0,1-.75-4.81,13.59,13.59,0,0,1,.79-4.72,11.69,11.69,0,0,1,2.2-3.76A9.82,9.82,0,0,1,29.14,0a9,9,0,0,1,2.78.43,8.87,8.87,0,0,1,2.54,1.26,9.3,9.3,0,0,1,2,2L34.74,6a1.67,1.67,0,0,1-2.45.34h0a5.09,5.09,0,0,0-1.46-.84,4.79,4.79,0,0,0-1.7-.3A4.89,4.89,0,0,0,27,5.66,5.32,5.32,0,0,0,25.22,7,6.48,6.48,0,0,0,24,9.12a8.7,8.7,0,0,0-.42,2.79A8.43,8.43,0,0,0,24,14.65a6.47,6.47,0,0,0,1.19,2.11,4.91,4.91,0,0,0,1.86,1.35,6.11,6.11,0,0,0,2.42.46,5,5,0,0,0,1.73-.3,5.82,5.82,0,0,0,1.52-.8h0a1.41,1.41,0,0,1,2.13.5l1.41,2.61a6.92,6.92,0,0,1-1.88,1.64,10.25,10.25,0,0,1-2.61,1.13A10.11,10.11,0,0,1,29,23.75Z" fill="#333"/><path d="M36.11,23.42,44,.46H48l7.79,23h-2.4a3.63,3.63,0,0,1-3.34-2.68l-2.87-9c-.16-.46-.31-.95-.46-1.48s-.3-1.06-.45-1.62L45.87,7c-.14-.54-.26-1-.35-1.5l.85,0c-.12.55-.24,1.08-.39,1.61l-.42,1.57c-.14.5-.4,1.31-.56,1.81s-.27.86-.39,1.31l-2.85,8.85a3.74,3.74,0,0,1-3.44,2.76ZM39.85,19l1.5-4.2h9.13L52,19Z" fill="#333"/><path d="M56.45,23.42V.46h2.29a2.75,2.75,0,0,1,2.53,2.92V18.5h8.84v2.14a2.61,2.61,0,0,1-2.41,2.78Z" fill="#333"/><path d="M71.73,23.42V.46H85.56V2.51a2.54,2.54,0,0,1-2.33,2.71H76.41V18.67h7a2.64,2.64,0,0,1,2.43,2.81v1.94ZM74,14V9.48H84.29v2.19a2.2,2.2,0,0,1-2,2.34Z" fill="#333"/><path d="M86.47,23.42,94,10.92l3.88,2.6-4.86,8.21a3.27,3.27,0,0,1-2.79,1.69h-3.8m20,0h-4.07a3.35,3.35,0,0,1-2.83-1.71l-5.12-8.59L86.61.46m0,0h3.92a3.59,3.59,0,0,1,3,1.86l4.91,8.31,8,12.79m-.29-23-7.28,12.3-3.86-2.49,4.37-7.7A3.91,3.91,0,0,1,102.82.46h3.4" fill="#333"/><path d="M46.8,18.39c.22-.51.38-.76.47-.76h.06A1.77,1.77,0,0,1,48,18c.33.24.49.46.49.67a64.25,64.25,0,0,1-2.74,6.68q-2.74,6.26-3.15,7c-.27.51-.45.85-.55,1a4.13,4.13,0,0,1-.41.56,1.4,1.4,0,0,1-1.14.59,1.55,1.55,0,0,0-.5.07,1.23,1.23,0,0,1-.25.07c-.23,0-.35,0-.35-.16a1.45,1.45,0,0,1,.09-.28q.09-.23,2.45-5.37c-1.68-.07-3.15-.12-4.43-.15a42.68,42.68,0,0,0-3.32,5,2,2,0,0,1-.34.51.63.63,0,0,1-.44.15.93.93,0,0,1-.6-.29.88.88,0,0,1-.32-.68q0-1.11,2.76-4.74a10.75,10.75,0,0,0-1.64.07l-.45.06c-.19,0-.29-.17-.29-.5a1.08,1.08,0,0,1,.58-.89A2.75,2.75,0,0,1,35,27h.27l1.36,0a58.69,58.69,0,0,1,4.89-5.26,21,21,0,0,1,4.42-3.4,1.16,1.16,0,0,1,.48-.15C46.5,18.11,46.64,18.21,46.8,18.39ZM46.05,20a47.08,47.08,0,0,0-7.15,7c1.26,0,2.54.08,3.84.16Q44.69,22.85,46.05,20Z" fill="#3fa3dc"/><path d="M55.18,17.62a1.13,1.13,0,0,1,.39.94,5.09,5.09,0,0,1-.66,1.94,24.42,24.42,0,0,1-1.6,2.7c-.62.92-1.33,1.9-2.11,2.93q-1.87,2.46-3.58,4.42c0,.08,0,.25-.09.49a2.94,2.94,0,0,0-.08.72.84.84,0,0,0,.32.66,1.16,1.16,0,0,0,.81.3,1.94,1.94,0,0,0,1-.36,5.78,5.78,0,0,0,1-.79c.71-.75,1.15-1.14,1.33-1.14s.25.27.25.81v.22a1,1,0,0,1-.15.63,5.84,5.84,0,0,1-2,1.7,4.74,4.74,0,0,1-2.14.56,1.88,1.88,0,0,1-1.53-.63A2.69,2.69,0,0,1,45.79,32a14.61,14.61,0,0,1,1.12-5.07,24,24,0,0,1,2.53-5q3.16-4.62,4.84-4.62A1.39,1.39,0,0,1,55.18,17.62Zm-1.39,1.52c0-.11,0-.16-.1-.16-.25,0-.91.74-2,2.21a38.39,38.39,0,0,0-2.31,3.53A20,20,0,0,0,48.06,28q1.26-1.55,3.5-4.83T53.79,19.14Z" fill="#3fa3dc"/><path d="M58.43,25.64a1.76,1.76,0,0,1-.58,1.29,1.84,1.84,0,0,1-1.3.55.34.34,0,0,1-.31-.12.53.53,0,0,1-.08-.3,1.5,1.5,0,0,1,.05-.37,5.06,5.06,0,0,0-.86.41,11.46,11.46,0,0,0-1.16.82q-.69.54-.69.81c0,.06.09.09.26.09a2.73,2.73,0,0,0,.77-.18,2.51,2.51,0,0,1,.74-.19.75.75,0,0,1,.27,0,1,1,0,0,1,.3.33.86.86,0,0,1,.16.41c0,.1-.09.23-.28.4a2,2,0,0,1-.63.37,4.25,4.25,0,0,0-.47.19c-1.51.87-2.26,1.47-2.26,1.79,0,.58.47.87,1.42.87a3.37,3.37,0,0,0,1.84-.6,13.56,13.56,0,0,0,1.41-1c.41-.35.68-.56.79-.64a.54.54,0,0,1,.25-.13c.19,0,.28.22.28.65a3,3,0,0,1-.07.84,1.47,1.47,0,0,1-.43.51,7,7,0,0,1-4.35,1.92A4,4,0,0,1,51.76,34a1.82,1.82,0,0,1-1.2-1.72c0-1,.68-1.79,2-2.32a.92.92,0,0,1-.52-.48,2.66,2.66,0,0,1-.12-.94,2.22,2.22,0,0,1,.58-1.37A4.78,4.78,0,0,1,54,26,7.07,7.07,0,0,1,57.34,25a1.72,1.72,0,0,1,.72.17A.57.57,0,0,1,58.43,25.64Z" fill="#3fa3dc"/><path d="M65.83,24a.71.71,0,0,1,.38-.09,1.05,1.05,0,0,1,.6.28c.24.19.37.35.37.49A.44.44,0,0,1,67,25c-.1.08-.42.38-1,.91l-1.92,1.82c-.72.69-1.3,1.23-1.73,1.63,0,.71-.08,1.44-.08,2.19s.09,1.14.29,1.14a3,3,0,0,0,1.5-1c.21-.23.43-.46.64-.7l.38-.41a.28.28,0,0,1,.18-.06c.13,0,.21.07.24.23a3.65,3.65,0,0,1,0,.67,2,2,0,0,1,0,.56,5.34,5.34,0,0,1-1.36,1.51,3.26,3.26,0,0,1-2,.89q-1.56,0-1.56-2.22A9.5,9.5,0,0,1,60.68,31c-1.2,1.3-2.16,2.42-2.89,3.38,0,.08-.17.12-.35.12a1,1,0,0,1-.6-.28.73.73,0,0,1-.33-.5,1.19,1.19,0,0,1,0-.36,7.12,7.12,0,0,1,1.38-1.85,35.38,35.38,0,0,1,2.88-2.85c0-.63-.05-1.12-.05-1.46s0-.52-.06-.52-.17.11-.39.32-.4.32-.53.32-.25-.11-.35-.35a1.41,1.41,0,0,1-.16-.5c0-.33.28-.75.82-1.27a2.33,2.33,0,0,1,1.51-.78,1,1,0,0,1,.51.21.67.67,0,0,1,.34.45c0,.77.07,1.41.07,1.92A20.25,20.25,0,0,1,65.83,24Z" fill="#3fa3dc"/><path d="M82.48,27.47c.17,0,.25.14.25.42a9.93,9.93,0,0,1-.18,1.47,4.75,4.75,0,0,1-1.54,2,10.21,10.21,0,0,1-3.72,2.22,7.88,7.88,0,0,1-2.39.4,2.87,2.87,0,0,1-2.12-1,3.35,3.35,0,0,1-1-2.4,8.49,8.49,0,0,1,.54-2.88,13,13,0,0,1,1.46-2.84A17.9,17.9,0,0,1,76,22.22a19.18,19.18,0,0,1,2.6-2.17,13.18,13.18,0,0,1,2.84-1.46,8.15,8.15,0,0,1,2.8-.54,2.39,2.39,0,0,1,1.8.78,1.57,1.57,0,0,1,.38,1.06,3.29,3.29,0,0,1-.6,1.61,9.21,9.21,0,0,1-1.42,1.76,10.87,10.87,0,0,1-1.69,1.35,2.93,2.93,0,0,1-1.4.56,1.32,1.32,0,0,1-.9-.34.94.94,0,0,1-.38-.6,1.9,1.9,0,0,1,.11-.59c.08-.22.17-.32.29-.32a.18.18,0,0,0,0,.11c0,.09.13.13.37.13A2.62,2.62,0,0,0,82,22.89a9.83,9.83,0,0,0,1.57-1.52,2.47,2.47,0,0,0,.71-1.26c0-.19-.13-.29-.38-.29a6.37,6.37,0,0,0-2.78,1,16.61,16.61,0,0,0-3.4,2.49,15.55,15.55,0,0,0-2.81,3.63,7.76,7.76,0,0,0-1.2,3.77A1.67,1.67,0,0,0,74,31.8a1.38,1.38,0,0,0,1.11.42,4.51,4.51,0,0,0,1.76-.45,10.54,10.54,0,0,0,1.94-1.08c.61-.43,1.19-.87,1.73-1.32a15.33,15.33,0,0,0,1.3-1.18,2.28,2.28,0,0,0,.5-.62C82.39,27.5,82.42,27.47,82.48,27.47Z" fill="#3fa3dc"/><path d="M92.64,30.66a5.91,5.91,0,0,1,.08.8,1.36,1.36,0,0,1-.1.51,3.58,3.58,0,0,1-.45.61,8.14,8.14,0,0,1-.84.79,3.78,3.78,0,0,1-2.41,1c-1.18,0-1.77-.54-1.77-1.61s.79-2.81,2.37-5.61a1.81,1.81,0,0,0,.12-.22,27.81,27.81,0,0,0-3.16,3.26c-1.55,1.78-2.59,3-3.1,3.77a.82.82,0,0,1-.32.22,1.1,1.1,0,0,1-.41.12.67.67,0,0,1-.31-.09.67.67,0,0,0-.21-.09c-.09,0-.14,0-.14-.1a7.63,7.63,0,0,1,.39-1c.25-.61.58-1.38,1-2.29q1.7-3.8,5.07-9.85a29.82,29.82,0,0,1,1.84-3,1.85,1.85,0,0,1,1.59-.64q.24,0,.27.15a1.48,1.48,0,0,1,0,.31,1,1,0,0,1-.06.33L91,19.81a99.69,99.69,0,0,0-5.14,9.1,17.43,17.43,0,0,1,3.25-3.25,3,3,0,0,1,1.47-.72,2.26,2.26,0,0,1,.88.17c.26.1.4.36.4.76a8,8,0,0,1-.7,1.64A29.79,29.79,0,0,0,89,32.23c0,.32.12.47.37.47s.93-.36,1.69-1.09l1.08-1.06a.4.4,0,0,1,.24-.1A.2.2,0,0,1,92.64,30.66Z" fill="#3fa3dc"/><path d="M100,25.51q.81,0,.81.57a.67.67,0,0,1-.13.46,5.15,5.15,0,0,0-.6,1c-.3.54-.64,1.23-1,2.08a9.94,9.94,0,0,0-.71,2.16,1.24,1.24,0,0,0,0,.31c0,.41.1.61.32.61a1.4,1.4,0,0,0,.76-.32,5.71,5.71,0,0,0,.78-.67c.23-.24.45-.49.67-.74l.39-.43a.3.3,0,0,1,.2-.05c.13,0,.21.1.24.32a4.65,4.65,0,0,1,.05.66,1.09,1.09,0,0,1-.07.48,5.39,5.39,0,0,1-1.36,1.51,3.17,3.17,0,0,1-1.92.89,1.51,1.51,0,0,1-1.28-.54,2,2,0,0,1-.4-1.2,3,3,0,0,1,.21-1.16,9.08,9.08,0,0,1-2,2,3.53,3.53,0,0,1-1.88.83,1.61,1.61,0,0,1-1.19-.45,2.05,2.05,0,0,1-.59-1.57,5.09,5.09,0,0,1,.43-2,7.5,7.5,0,0,1,1.14-1.85,11.79,11.79,0,0,1,1.56-1.52,5.41,5.41,0,0,1,3.28-1.44,2,2,0,0,1,.94.2.85.85,0,0,1,.46.5,1.71,1.71,0,0,1,.44-.51A1.06,1.06,0,0,1,100,25.51Zm-1.43,1.23a5.44,5.44,0,0,0-3.79,2.1,9,9,0,0,0-1.28,1.8,4,4,0,0,0-.59,1.44c0,.26.07.39.22.39s.75-.41,1.67-1.22a17.94,17.94,0,0,0,1.82-1.8C97,29,97.62,28.12,98.59,26.74Z" fill="#3fa3dc"/><path d="M106,31.43a1.4,1.4,0,0,1-.06.48,4.14,4.14,0,0,1-1.67,1.78,4,4,0,0,1-2,.69,2.06,2.06,0,0,1-1.46-.59,1.71,1.71,0,0,1-.61-1.2,4.52,4.52,0,0,1,.59-1.77c.4-.77.79-1.49,1.18-2.15a6.84,6.84,0,0,0,.59-1.06c0-.06-.07-.17-.22-.33s-.22-.28-.22-.36.15-.28.45-.61a7.45,7.45,0,0,1,1.08-1,1.94,1.94,0,0,1,1-.48.78.78,0,0,1,.6.31.88.88,0,0,1,.27.56A48.12,48.12,0,0,1,103,30.52a2.21,2.21,0,0,1-.18.3,3.5,3.5,0,0,0-.22.37c-.06.1-.12.22-.19.36a1.87,1.87,0,0,0-.22.74c0,.26.17.38.5.38a1.87,1.87,0,0,0,1-.35,5,5,0,0,0,.92-.77c.67-.74,1.05-1.12,1.15-1.12S106,30.77,106,31.43Zm1.74-9.66a1.94,1.94,0,0,1-.57,1.27,1.61,1.61,0,0,1-1.18.63c-.41,0-.62-.22-.62-.66a1.89,1.89,0,0,1,.54-1.27,1.59,1.59,0,0,1,1.2-.6.63.63,0,0,1,.46.16A.64.64,0,0,1,107.76,21.77Z" fill="#3fa3dc"/></g></g></svg>